<?xml version="1.0" encoding="UTF-8" standalone="no"?>
<!-- Created with Inkscape (http://www.inkscape.org/) -->

<svg
   xmlns:dc="http://purl.org/dc/elements/1.1/"
   xmlns:cc="http://creativecommons.org/ns#"
   xmlns:rdf="http://www.w3.org/1999/02/22-rdf-syntax-ns#"
   xmlns:svg="http://www.w3.org/2000/svg"
   xmlns="http://www.w3.org/2000/svg"
   xmlns:sodipodi="http://sodipodi.sourceforge.net/DTD/sodipodi-0.dtd"
   xmlns:inkscape="http://www.inkscape.org/namespaces/inkscape"
   width="60mm"
   height="59.999996mm"
   viewBox="0 0 60 59.999996"
   version="1.1"
   id="svg8"
   inkscape:version="0.92.3 (2405546, 2018-03-11)"
   sodipodi:docname="vershenna.svg"
   style="enable-background:new">
  <defs
     id="defs2" />
  <sodipodi:namedview
     id="base"
     pagecolor="#ffffff"
     bordercolor="#666666"
     borderopacity="1.0"
     inkscape:pageopacity="0.0"
     inkscape:pageshadow="2"
     inkscape:zoom="0.98994949"
     inkscape:cx="347.33059"
     inkscape:cy="69.147073"
     inkscape:document-units="mm"
     inkscape:current-layer="layer1"
     showgrid="false"
     showguides="true"
     inkscape:guide-bbox="true"
     inkscape:window-width="1858"
     inkscape:window-height="1057"
     inkscape:window-x="2552"
     inkscape:window-y="341"
     inkscape:window-maximized="1">
    <sodipodi:guide
       position="29.266013,199.91761"
       orientation="0,1"
       id="guide3762"
       inkscape:locked="false" />
    <sodipodi:guide
       position="33.67596,185.08415"
       orientation="0,1"
       id="guide3765"
       inkscape:locked="false" />
  </sodipodi:namedview>
  <metadata
     id="metadata5">
    <rdf:RDF>
      <cc:Work
         rdf:about="">
        <dc:format>image/svg+xml</dc:format>
        <dc:type
           rdf:resource="http://purl.org/dc/dcmitype/StillImage" />
        <dc:title></dc:title>
      </cc:Work>
    </rdf:RDF>
  </metadata>
  <g
     inkscape:label="Layer 1"
     inkscape:groupmode="layer"
     id="layer1"
     transform="translate(0,-237.00001)">
    <path
       style="fill:#000000;stroke-width:0.26755872"
       d="m 29.318625,237.00592 a 29.99966,30.001447 0 0 0 -29.31519059,30.44767 29.99966,30.001447 0 0 0 5.77012399,17.20857 29.999504,30.001577 0 0 0 0.06615,0.0842 29.99966,30.001447 0 0 0 1.808136,2.23615 29.999504,30.001577 0 0 0 0.14728,0.15296 29.99966,30.001447 0 0 0 1.948694,1.96949 29.999504,30.001577 0 0 0 0.246494,0.20981 29.99966,30.001447 0 0 0 2.0427456,1.68887 29.999504,30.001577 0 0 0 0.393769,0.27286 29.99966,30.001447 0 0 0 2.077371,1.39327 29.999504,30.001577 0 0 0 0.526576,0.29147 29.99966,30.001447 0 0 0 2.093904,1.11936 29.999504,30.001577 0 0 0 0.697624,0.29922 29.99966,30.001447 0 0 0 2.04223,0.84185 29.999504,30.001577 0 0 0 0.906912,0.28631 29.99966,30.001447 0 0 0 1.939395,0.57984 29.999504,30.001577 0 0 0 1.085708,0.22635 29.99966,30.001447 0 0 0 1.828808,0.35348 29.999504,30.001577 0 0 0 1.274844,0.13488 29.99966,30.001447 0 0 0 1.751294,0.15969 29.999504,30.001577 0 0 0 1.575597,0.0377 29.99966,30.001447 0 0 0 25.61469,-14.82721 29.99966,30.001447 0 0 0 0.004,-0.006 A 29.99966,30.001447 0 0 0 60,266.99894 l -0.0139,-0.90799 a 29.99966,30.001447 0 0 0 -3.92944,-13.92592 h 10e-4 a 29.999504,30.001577 0 0 0 -0.005,-0.008 29.99966,30.001447 0 0 0 -1.53374,-2.40721 29.999504,30.001577 0 0 0 -0.0853,-0.13022 29.99966,30.001447 0 0 0 -1.71512,-2.17724 29.999504,30.001577 0 0 0 -0.14986,-0.18501 29.99966,30.001447 0 0 0 -1.8593,-1.92866 29.999504,30.001577 0 0 0 -0.23356,-0.23565 29.99966,30.001447 0 0 0 -1.96886,-1.67078 29.999504,30.001577 0 0 0 -0.33073,-0.27287 29.99966,30.001447 0 0 0 -1.99984,-1.3793 29.999504,30.001577 0 0 0 -0.49145,-0.3292 29.99966,30.001447 0 0 0 -2.02569,-1.11626 29.999504,30.001577 0 0 0 -0.61494,-0.32817 29.99966,30.001447 0 0 0 -2.00141,-0.85477 29.999504,30.001577 0 0 0 -0.77875,-0.32093 29.99966,30.001447 0 0 0 -1.920276,-0.60153 29.999504,30.001577 0 0 0 -0.965821,-0.28889 29.99966,30.001447 0 0 0 -1.817439,-0.37519 29.999504,30.001577 0 0 0 -1.139968,-0.21964 29.99966,30.001447 0 0 0 -1.685668,-0.17519 29.999504,30.001577 0 0 0 -1.349773,-0.12248 29.99966,30.001447 0 0 0 -2.066515,-0.0326 z m -0.07338,2.70229 a 27.296847,27.298735 0 0 1 23.509925,12.4572 h 2.12233 a 28.999671,29.001399 0 0 1 4.10874,13.95589 l 0.0134,0.87802 a 28.999671,29.001399 0 0 1 -4.32475,15.16777 h -2.13004 a 27.296847,27.298735 0 0 1 -22.472793,12.1306 27.296847,27.298735 0 0 1 -22.8867136,-12.1306 h -1.869117 a 28.999671,29.001399 0 0 1 -4.312866,-14.7285 28.999671,29.001399 0 0 1 4.119082,-15.27318 h 1.842762 a 27.296847,27.298735 0 0 1 22.2800386,-12.4572 z"
       id="path3713"
       inkscape:connector-curvature="0" />
  </g>
</svg>
